<?xml version="1.0" encoding="UTF-8" ?>
<svg version="1.1" width="45" height="45" xmlns="http://www.w3.org/2000/svg" shape-rendering="crispEdges">
<rect x="19" y="10" width="1" height="1" fill="#FCFCFB" />
<rect x="20" y="10" width="1" height="1" fill="#FCFCFB" />
<rect x="21" y="10" width="1" height="1" fill="#FCFCFB" />
<rect x="22" y="10" width="1" height="1" fill="#FCFCFB" />
<rect x="23" y="10" width="1" height="1" fill="#FCFCFB" />
<rect x="24" y="10" width="1" height="1" fill="#FCFCFB" />
<rect x="25" y="10" width="1" height="1" fill="#FCFCFB" />
<rect x="17" y="11" width="1" height="1" fill="#FCFCFB" />
<rect x="18" y="11" width="1" height="1" fill="#FCFCFB" />
<rect x="22" y="11" width="1" height="1" fill="#FCFCFB" />
<rect x="26" y="11" width="1" height="1" fill="#FCFCFB" />
<rect x="27" y="11" width="1" height="1" fill="#FCFCFB" />
<rect x="15" y="12" width="1" height="1" fill="#FCFCFB" />
<rect x="16" y="12" width="1" height="1" fill="#FCFCFB" />
<rect x="22" y="12" width="1" height="1" fill="#FCFCFB" />
<rect x="28" y="12" width="1" height="1" fill="#FCFCFB" />
<rect x="29" y="12" width="1" height="1" fill="#FCFCFB" />
<rect x="14" y="13" width="1" height="1" fill="#FCFCFB" />
<rect x="22" y="13" width="1" height="1" fill="#FCFCFB" />
<rect x="30" y="13" width="1" height="1" fill="#FCFCFB" />
<rect x="13" y="14" width="1" height="1" fill="#FCFCFB" />
<rect x="22" y="14" width="1" height="1" fill="#FCFCFB" />
<rect x="31" y="14" width="1" height="1" fill="#FCFCFB" />
<rect x="12" y="15" width="1" height="1" fill="#FCFCFB" />
<rect x="22" y="15" width="1" height="1" fill="#FCFCFB" />
<rect x="32" y="15" width="1" height="1" fill="#FCFCFB" />
<rect x="12" y="16" width="1" height="1" fill="#FCFCFB" />
<rect x="22" y="16" width="1" height="1" fill="#FCFCFB" />
<rect x="32" y="16" width="1" height="1" fill="#FCFCFB" />
<rect x="11" y="17" width="1" height="1" fill="#FCFCFB" />
<rect x="22" y="17" width="1" height="1" fill="#FCFCFB" />
<rect x="33" y="17" width="1" height="1" fill="#FCFCFB" />
<rect x="11" y="18" width="1" height="1" fill="#FCFCFB" />
<rect x="22" y="18" width="1" height="1" fill="#FCFCFB" />
<rect x="33" y="18" width="1" height="1" fill="#FCFCFB" />
<rect x="10" y="19" width="1" height="1" fill="#FCFCFB" />
<rect x="22" y="19" width="1" height="1" fill="#FCFCFB" />
<rect x="34" y="19" width="1" height="1" fill="#FCFCFB" />
<rect x="10" y="20" width="1" height="1" fill="#FCFCFB" />
<rect x="22" y="20" width="1" height="1" fill="#FCFCFB" />
<rect x="34" y="20" width="1" height="1" fill="#FCFCFB" />
<rect x="10" y="21" width="1" height="1" fill="#FCFCFB" />
<rect x="22" y="21" width="1" height="1" fill="#FCFCFB" />
<rect x="34" y="21" width="1" height="1" fill="#FCFCFB" />
<rect x="10" y="22" width="1" height="1" fill="#FCFCFB" />
<rect x="11" y="22" width="1" height="1" fill="#FCFCFB" />
<rect x="12" y="22" width="1" height="1" fill="#FCFCFB" />
<rect x="13" y="22" width="1" height="1" fill="#FCFCFB" />
<rect x="14" y="22" width="1" height="1" fill="#FCFCFB" />
<rect x="15" y="22" width="1" height="1" fill="#FCFCFB" />
<rect x="16" y="22" width="1" height="1" fill="#FCFCFB" />
<rect x="17" y="22" width="1" height="1" fill="#FCFCFB" />
<rect x="18" y="22" width="1" height="1" fill="#FCFCFB" />
<rect x="19" y="22" width="1" height="1" fill="#FCFCFB" />
<rect x="20" y="22" width="1" height="1" fill="#FCFCFB" />
<rect x="21" y="22" width="1" height="1" fill="#FCFCFB" />
<rect x="22" y="22" width="1" height="1" fill="#FCFCFB" />
<rect x="23" y="22" width="1" height="1" fill="#FCFCFB" />
<rect x="24" y="22" width="1" height="1" fill="#FCFCFB" />
<rect x="25" y="22" width="1" height="1" fill="#FCFCFB" />
<rect x="26" y="22" width="1" height="1" fill="#FCFCFB" />
<rect x="27" y="22" width="1" height="1" fill="#FCFCFB" />
<rect x="28" y="22" width="1" height="1" fill="#FCFCFB" />
<rect x="29" y="22" width="1" height="1" fill="#FCFCFB" />
<rect x="30" y="22" width="1" height="1" fill="#FCFCFB" />
<rect x="31" y="22" width="1" height="1" fill="#FCFCFB" />
<rect x="32" y="22" width="1" height="1" fill="#FCFCFB" />
<rect x="33" y="22" width="1" height="1" fill="#FCFCFB" />
<rect x="34" y="22" width="1" height="1" fill="#FCFCFB" />
<rect x="10" y="23" width="1" height="1" fill="#FCFCFB" />
<rect x="22" y="23" width="1" height="1" fill="#FCFCFB" />
<rect x="34" y="23" width="1" height="1" fill="#FCFCFB" />
<rect x="10" y="24" width="1" height="1" fill="#FCFCFB" />
<rect x="22" y="24" width="1" height="1" fill="#FCFCFB" />
<rect x="34" y="24" width="1" height="1" fill="#FCFCFB" />
<rect x="10" y="25" width="1" height="1" fill="#FCFCFB" />
<rect x="22" y="25" width="1" height="1" fill="#FCFCFB" />
<rect x="34" y="25" width="1" height="1" fill="#FCFCFB" />
<rect x="11" y="26" width="1" height="1" fill="#FCFCFB" />
<rect x="22" y="26" width="1" height="1" fill="#FCFCFB" />
<rect x="33" y="26" width="1" height="1" fill="#FCFCFB" />
<rect x="11" y="27" width="1" height="1" fill="#FCFCFB" />
<rect x="22" y="27" width="1" height="1" fill="#FCFCFB" />
<rect x="33" y="27" width="1" height="1" fill="#FCFCFB" />
<rect x="12" y="28" width="1" height="1" fill="#FCFCFB" />
<rect x="22" y="28" width="1" height="1" fill="#FCFCFB" />
<rect x="32" y="28" width="1" height="1" fill="#FCFCFB" />
<rect x="12" y="29" width="1" height="1" fill="#FCFCFB" />
<rect x="22" y="29" width="1" height="1" fill="#FCFCFB" />
<rect x="32" y="29" width="1" height="1" fill="#FCFCFB" />
<rect x="13" y="30" width="1" height="1" fill="#FCFCFB" />
<rect x="22" y="30" width="1" height="1" fill="#FCFCFB" />
<rect x="31" y="30" width="1" height="1" fill="#FCFCFB" />
<rect x="14" y="31" width="1" height="1" fill="#FCFCFB" />
<rect x="22" y="31" width="1" height="1" fill="#FCFCFB" />
<rect x="30" y="31" width="1" height="1" fill="#FCFCFB" />
<rect x="15" y="32" width="1" height="1" fill="#FCFCFB" />
<rect x="16" y="32" width="1" height="1" fill="#FCFCFB" />
<rect x="22" y="32" width="1" height="1" fill="#FCFCFB" />
<rect x="28" y="32" width="1" height="1" fill="#FCFCFB" />
<rect x="29" y="32" width="1" height="1" fill="#FCFCFB" />
<rect x="17" y="33" width="1" height="1" fill="#FCFCFB" />
<rect x="18" y="33" width="1" height="1" fill="#FCFCFB" />
<rect x="22" y="33" width="1" height="1" fill="#FCFCFB" />
<rect x="26" y="33" width="1" height="1" fill="#FCFCFB" />
<rect x="27" y="33" width="1" height="1" fill="#FCFCFB" />
<rect x="19" y="34" width="1" height="1" fill="#FCFCFB" />
<rect x="20" y="34" width="1" height="1" fill="#FCFCFB" />
<rect x="21" y="34" width="1" height="1" fill="#FCFCFB" />
<rect x="22" y="34" width="1" height="1" fill="#FCFCFB" />
<rect x="23" y="34" width="1" height="1" fill="#FCFCFB" />
<rect x="24" y="34" width="1" height="1" fill="#FCFCFB" />
<rect x="25" y="34" width="1" height="1" fill="#FCFCFB" />
</svg>